<svg width="41" height="48" viewBox="0 0 41 48" fill="none" xmlns="http://www.w3.org/2000/svg">
<path d="M20.45 5.07L28.26 9.58L32.22 7.3L20.45 0.5L0.789978 11.86L4.72998 14.14L20.45 5.07Z" fill="#7E3AF2"/>
<path d="M36.1601 9.58008L20.4501 18.6501L12.6401 14.1401L8.69012 16.4201L20.4501 23.2101L40.1201 11.8601L36.1601 9.58008Z" fill="#7E3AF2"/>
<path d="M3.95 24.8401L0 22.5601V36.1401L19.66 47.5001V42.9401L3.95 33.8601V24.8401Z" fill="#7E3AF2"/>
<path d="M0 17.9999L15.71 27.0699V36.0899L19.66 38.3799V24.7899L0 13.4399V17.9999Z" fill="#7E3AF2"/>
<path d="M33.0101 22.56V18L21.2401 24.79V47.5L25.1901 45.22V27.07L33.0101 22.56Z" fill="#7E3AF2"/>
<path d="M36.9501 15.7199V33.8599L29.1401 38.3799V42.9399L40.9101 36.1399V13.4399L36.9501 15.7199Z" fill="#7E3AF2"/>
</svg>
